<svg width="125" height="125" viewBox="0 0 125 125" fill="none" xmlns="http://www.w3.org/2000/svg">
<path d="M31.25 46.875H41.6667V57.2917H52.0833V67.7083H41.6667V78.125H31.25V67.7083H20.8333V57.2917H31.25V46.875ZM96.3542 46.875C98.4262 46.875 100.413 47.6981 101.878 49.1632C103.344 50.6284 104.167 52.6155 104.167 54.6875C104.167 56.7595 103.344 58.7467 101.878 60.2118C100.413 61.6769 98.4262 62.5 96.3542 62.5C94.2822 62.5 92.295 61.6769 90.8299 60.2118C89.3648 58.7467 88.5417 56.7595 88.5417 54.6875C88.5417 52.6155 89.3648 50.6284 90.8299 49.1632C92.295 47.6981 94.2822 46.875 96.3542 46.875ZM80.7292 62.5C82.8012 62.5 84.7883 63.3231 86.2534 64.7882C87.7186 66.2534 88.5417 68.2405 88.5417 70.3125C88.5417 72.3845 87.7186 74.3717 86.2534 75.8368C84.7883 77.3019 82.8012 78.125 80.7292 78.125C78.6572 78.125 76.67 77.3019 75.2049 75.8368C73.7398 74.3717 72.9167 72.3845 72.9167 70.3125C72.9167 68.2405 73.7398 66.2534 75.2049 64.7882C76.67 63.3231 78.6572 62.5 80.7292 62.5ZM88.5417 26.0417C98.211 26.0417 107.484 29.8828 114.322 36.7201C121.159 43.5573 125 52.8307 125 62.5C125 72.1694 121.159 81.4427 114.322 88.28C107.484 95.1172 98.211 98.9584 88.5417 98.9584C78.3333 98.9584 69.1146 94.7917 62.5 88.0209C59.1121 91.4939 55.0615 94.2515 50.5883 96.1303C46.115 98.0091 41.3101 98.9708 36.4583 98.9584C26.789 98.9584 17.5157 95.1172 10.6784 88.28C3.84113 81.4427 0 72.1694 0 62.5C0 52.8307 3.84113 43.5573 10.6784 36.7201C17.5157 29.8828 26.789 26.0417 36.4583 26.0417H88.5417ZM36.4583 36.4583C29.5517 36.4583 22.9279 39.202 18.0441 44.0858C13.1603 48.9695 10.4167 55.5933 10.4167 62.5C10.4167 69.4067 13.1603 76.0305 18.0441 80.9143C22.9279 85.798 29.5517 88.5417 36.4583 88.5417C45 88.5417 52.5521 84.4271 57.2917 78.125H67.7083C72.4479 84.4271 80 88.5417 88.5417 88.5417C95.4483 88.5417 102.072 85.798 106.956 80.9143C111.84 76.0305 114.583 69.4067 114.583 62.5C114.583 55.5933 111.84 48.9695 106.956 44.0858C102.072 39.202 95.4483 36.4583 88.5417 36.4583H36.4583Z" fill="#A276D9"/>
</svg>
