<svg width="64" height="64" viewBox="0 0 64 64" fill="none" xmlns="http://www.w3.org/2000/svg">
<path d="M3.71574 17.8579C-0.189507 13.9526 -0.189507 7.62098 3.71574 3.71574C7.62098 -0.189507 13.9526 -0.189507 17.8579 3.71574L60.2843 46.1421C64.1895 50.0474 64.1895 56.379 60.2843 60.2843C56.379 64.1895 50.0474 64.1895 46.1421 60.2843L3.71574 17.8579Z" fill="#A276D9"/>
<path d="M17.8579 60.2843C13.9526 64.1895 7.62098 64.1895 3.71574 60.2843C-0.189507 56.379 -0.189507 50.0474 3.71574 46.1421L46.1421 3.71574C50.0474 -0.189507 56.379 -0.189507 60.2843 3.71574C64.1895 7.62098 64.1895 13.9526 60.2843 17.8579L17.8579 60.2843Z" fill="#A276D9"/>
</svg>
