<svg width="63" height="39" viewBox="0 0 63 39" fill="none" xmlns="http://www.w3.org/2000/svg">
<g filter="url(#filter0_d_88_74)">
<path d="M15.75 10.5H21V15.75H26.25V21H21V26.25H15.75V21H10.5V15.75H15.75V10.5ZM48.5625 10.5C49.6068 10.5 50.6083 10.9148 51.3467 11.6533C52.0852 12.3917 52.5 13.3932 52.5 14.4375C52.5 15.4818 52.0852 16.4833 51.3467 17.2217C50.6083 17.9602 49.6068 18.375 48.5625 18.375C47.5182 18.375 46.5167 17.9602 45.7783 17.2217C45.0398 16.4833 44.625 15.4818 44.625 14.4375C44.625 13.3932 45.0398 12.3917 45.7783 11.6533C46.5167 10.9148 47.5182 10.5 48.5625 10.5ZM40.6875 18.375C41.7318 18.375 42.7333 18.7898 43.4717 19.5283C44.2102 20.2667 44.625 21.2682 44.625 22.3125C44.625 23.3568 44.2102 24.3583 43.4717 25.0967C42.7333 25.8352 41.7318 26.25 40.6875 26.25C39.6432 26.25 38.6417 25.8352 37.9033 25.0967C37.1648 24.3583 36.75 23.3568 36.75 22.3125C36.75 21.2682 37.1648 20.2667 37.9033 19.5283C38.6417 18.7898 39.6432 18.375 40.6875 18.375V18.375ZM44.625 0C49.4984 0 54.1721 1.93593 57.6181 5.38191C61.0641 8.82789 63 13.5016 63 18.375C63 23.2484 61.0641 27.9221 57.6181 31.3681C54.1721 34.8141 49.4984 36.75 44.625 36.75C39.48 36.75 34.8337 34.65 31.5 31.2375C29.7925 32.9879 27.751 34.3778 25.4965 35.3247C23.242 36.2716 20.8203 36.7563 18.375 36.75C13.5016 36.75 8.82789 34.8141 5.38191 31.3681C1.93593 27.9221 0 23.2484 0 18.375C0 13.5016 1.93593 8.82789 5.38191 5.38191C8.82789 1.93593 13.5016 0 18.375 0H44.625ZM18.375 5.25C14.894 5.25 11.5556 6.63281 9.09422 9.09422C6.63281 11.5556 5.25 14.894 5.25 18.375C5.25 21.856 6.63281 25.1944 9.09422 27.6558C11.5556 30.1172 14.894 31.5 18.375 31.5C22.68 31.5 26.4862 29.4262 28.875 26.25H34.125C36.5138 29.4262 40.32 31.5 44.625 31.5C48.106 31.5 51.4444 30.1172 53.9058 27.6558C56.3672 25.1944 57.75 21.856 57.75 18.375C57.75 14.894 56.3672 11.5556 53.9058 9.09422C51.4444 6.63281 48.106 5.25 44.625 5.25H18.375Z" fill="#2E59C9"/>
</g>
<defs>
<filter id="filter0_d_88_74" x="0" y="0" width="63" height="38.7501" filterUnits="userSpaceOnUse" color-interpolation-filters="sRGB">
<feFlood flood-opacity="0" result="BackgroundImageFix"/>
<feColorMatrix in="SourceAlpha" type="matrix" values="0 0 0 0 0 0 0 0 0 0 0 0 0 0 0 0 0 0 127 0" result="hardAlpha"/>
<feOffset dy="2"/>
<feComposite in2="hardAlpha" operator="out"/>
<feColorMatrix type="matrix" values="0 0 0 0 0.129412 0 0 0 0 0.156863 0 0 0 0 0.215686 0 0 0 1 0"/>
<feBlend mode="normal" in2="BackgroundImageFix" result="effect1_dropShadow_88_74"/>
<feBlend mode="normal" in="SourceGraphic" in2="effect1_dropShadow_88_74" result="shape"/>
</filter>
</defs>
</svg>
