<svg width="677" height="631" viewBox="0 0 677 631" fill="none" xmlns="http://www.w3.org/2000/svg">
<path d="M170.813 241.77L216.545 225.125L233.206 270.902L278.938 254.257L295.599 300.033L249.867 316.678L266.528 362.454L220.797 379.099L204.135 333.323L158.404 349.968L141.742 304.192L187.474 287.547L170.813 241.77ZM456.636 137.739C465.733 134.428 475.773 134.87 484.549 138.967C493.325 143.065 500.117 150.482 503.431 159.588C506.745 168.693 506.31 178.741 502.221 187.521C498.132 196.3 490.725 203.093 481.628 206.404C472.531 209.714 462.491 209.273 453.715 205.175C444.939 201.078 438.147 193.661 434.833 184.555C431.519 175.45 431.954 165.402 436.043 156.622C440.132 147.842 447.54 141.05 456.636 137.739ZM413.03 231.371C422.127 228.06 432.168 228.502 440.943 232.599C449.719 236.697 456.511 244.114 459.825 253.22C463.139 262.325 462.704 272.373 458.615 281.153C454.526 289.932 447.119 296.725 438.022 300.036C428.926 303.347 418.885 302.905 410.109 298.807C401.334 294.71 394.542 287.293 391.228 278.187C387.913 269.082 388.349 259.034 392.437 250.254C396.526 241.474 403.934 234.682 413.03 231.371V231.371ZM389.015 58.67C431.466 43.2192 478.322 45.2812 519.275 64.4024C560.228 83.5235 591.924 118.138 607.39 160.63C622.856 203.122 620.825 250.012 601.744 290.984C582.663 331.956 548.094 363.654 505.644 379.105C460.826 395.417 413.689 391.837 373.82 372.652C364.501 393.328 351.129 411.919 334.495 427.323C317.862 442.727 298.305 454.631 276.985 462.33C234.534 477.78 187.678 475.718 146.725 456.597C105.772 437.476 74.0756 402.862 58.6097 360.37C43.1438 317.877 45.1748 270.988 64.256 230.016C83.3372 189.044 117.906 157.346 160.356 141.895L389.015 58.67ZM177.018 187.671C146.696 198.708 122.004 221.349 108.374 250.615C94.745 279.88 93.2943 313.373 104.341 343.725C115.388 374.076 138.028 398.801 167.281 412.459C196.533 426.117 230.002 427.589 260.324 416.553C297.824 402.904 324.398 372.755 335.126 337.487L380.858 320.842C411.746 340.963 451.482 346.977 488.982 333.328C519.304 322.292 543.996 299.651 557.625 270.385C571.255 241.119 572.706 207.627 561.658 177.275C550.611 146.923 527.971 122.199 498.719 108.541C469.467 94.8829 435.998 93.4101 405.676 104.446L177.018 187.671Z" fill="#A276D9"/>
<path d="M181.518 252.358L227.249 235.713L243.911 281.489L289.642 264.844L306.303 310.62L260.572 327.265L277.233 373.042L231.501 389.687L214.84 343.91L169.108 360.555L152.447 314.779L198.179 298.134L181.518 252.358ZM467.341 148.326C476.437 145.016 486.478 145.457 495.254 149.555C504.029 153.652 510.821 161.069 514.135 170.175C517.45 179.28 517.014 189.328 512.926 198.108C508.837 206.888 501.429 213.68 492.333 216.991C483.236 220.302 473.195 219.86 464.42 215.763C455.644 211.665 448.852 204.248 445.538 195.142C442.224 186.037 442.659 175.989 446.748 167.209C450.837 158.43 458.244 151.637 467.341 148.326ZM423.735 241.958C432.832 238.648 442.872 239.089 451.648 243.187C460.424 247.284 467.216 254.702 470.53 263.807C473.844 272.913 473.409 282.96 469.32 291.74C465.231 300.52 457.824 307.312 448.727 310.623C439.63 313.934 429.59 313.492 420.814 309.395C412.038 305.297 405.246 297.88 401.932 288.774C398.618 279.669 399.053 269.621 403.142 260.841C407.231 252.062 414.638 245.269 423.735 241.958ZM399.72 69.2574C442.17 53.8066 489.026 55.8686 529.98 74.9898C570.933 94.1109 602.629 128.725 618.095 171.217C633.561 213.71 631.53 260.599 612.448 301.571C593.367 342.543 558.799 374.241 516.348 389.692C471.531 406.004 424.394 402.424 384.525 383.239C375.206 403.915 361.834 422.506 345.2 437.911C328.566 453.315 309.01 465.219 287.69 472.917C245.239 488.368 198.383 486.306 157.43 467.185C116.476 448.063 84.7803 413.449 69.3143 370.957C53.8484 328.465 55.8794 281.575 74.9606 240.603C94.0418 199.631 128.61 167.933 171.061 152.482L399.72 69.2574ZM187.722 198.259C157.4 209.295 132.709 231.936 119.079 261.202C105.45 290.468 103.999 323.96 115.046 354.312C126.093 384.664 148.733 409.388 177.985 423.046C207.238 436.704 240.706 438.177 271.028 427.141C308.528 413.492 335.103 383.342 345.831 348.074L391.562 331.429C422.45 351.551 462.187 357.565 499.687 343.916C530.009 332.879 554.701 310.238 568.33 280.972C581.959 251.707 583.41 218.214 572.363 187.862C561.316 157.511 538.676 132.786 509.424 119.128C480.171 105.47 446.703 103.997 416.381 115.034L187.722 198.259Z" fill="#212837"/>
<path d="M44.784 544.8C54.448 544.8 61.84 546.56 66.96 550.08C72.144 553.6 74.736 559.104 74.736 566.592C74.736 570.496 74.032 573.856 72.624 576.672C71.28 579.424 69.296 581.696 66.672 583.488C64.048 585.216 60.848 586.496 57.072 587.328C53.296 588.16 48.976 588.576 44.112 588.576H38.064V612H25.968V546.432C28.784 545.792 31.888 545.376 35.28 545.184C38.736 544.928 41.904 544.8 44.784 544.8ZM45.648 555.264C42.576 555.264 40.048 555.36 38.064 555.552V578.208H43.92C49.744 578.208 54.224 577.408 57.36 575.808C60.496 574.144 62.064 571.04 62.064 566.496C62.064 564.32 61.648 562.496 60.816 561.024C59.984 559.552 58.832 558.4 57.36 557.568C55.888 556.736 54.128 556.16 52.08 555.84C50.096 555.456 47.952 555.264 45.648 555.264ZM101.275 603.84C104.859 603.84 107.579 603.648 109.435 603.264V590.4C108.795 590.208 107.867 590.016 106.651 589.824C105.435 589.632 104.091 589.536 102.619 589.536C101.339 589.536 100.027 589.632 98.6828 589.824C97.4028 590.016 96.2188 590.368 95.1308 590.88C94.1068 591.392 93.2748 592.128 92.6348 593.088C91.9948 593.984 91.6748 595.136 91.6748 596.544C91.6748 599.296 92.5388 601.216 94.2668 602.304C95.9948 603.328 98.3308 603.84 101.275 603.84ZM100.315 560.544C104.155 560.544 107.387 561.024 110.011 561.984C112.635 562.944 114.715 564.288 116.251 566.016C117.851 567.744 118.971 569.856 119.611 572.352C120.315 574.784 120.667 577.472 120.667 580.416V610.848C118.875 611.232 116.155 611.68 112.507 612.192C108.923 612.768 104.859 613.056 100.315 613.056C97.3068 613.056 94.5548 612.768 92.0588 612.192C89.5628 611.616 87.4188 610.688 85.6268 609.408C83.8988 608.128 82.5228 606.464 81.4988 604.416C80.5388 602.368 80.0588 599.84 80.0588 596.832C80.0588 593.952 80.6028 591.52 81.6908 589.536C82.8428 587.552 84.3788 585.952 86.2988 584.736C88.2188 583.456 90.4268 582.56 92.9228 582.048C95.4828 581.472 98.1388 581.184 100.891 581.184C102.171 581.184 103.515 581.28 104.923 581.472C106.331 581.6 107.835 581.856 109.435 582.24V580.32C109.435 578.976 109.275 577.696 108.955 576.48C108.635 575.264 108.059 574.208 107.227 573.312C106.459 572.352 105.403 571.616 104.059 571.104C102.779 570.592 101.147 570.336 99.1628 570.336C96.4748 570.336 94.0108 570.528 91.7708 570.912C89.5308 571.296 87.7068 571.744 86.2988 572.256L84.8588 562.848C86.3308 562.336 88.4748 561.824 91.2908 561.312C94.1068 560.8 97.1148 560.544 100.315 560.544ZM163.5 572.256C162.54 571.936 161.196 571.616 159.468 571.296C157.804 570.912 155.852 570.72 153.612 570.72C152.332 570.72 150.956 570.848 149.484 571.104C148.076 571.36 147.084 571.584 146.508 571.776V612H134.892V564.192C137.132 563.36 139.916 562.592 143.244 561.888C146.636 561.12 150.38 560.736 154.476 560.736C155.244 560.736 156.14 560.8 157.164 560.928C158.188 560.992 159.212 561.12 160.236 561.312C161.26 561.44 162.252 561.632 163.212 561.888C164.172 562.08 164.94 562.272 165.516 562.464L163.5 572.256ZM191.275 603.84C194.859 603.84 197.579 603.648 199.435 603.264V590.4C198.795 590.208 197.867 590.016 196.651 589.824C195.435 589.632 194.091 589.536 192.619 589.536C191.339 589.536 190.027 589.632 188.683 589.824C187.403 590.016 186.219 590.368 185.131 590.88C184.107 591.392 183.275 592.128 182.635 593.088C181.995 593.984 181.675 595.136 181.675 596.544C181.675 599.296 182.539 601.216 184.267 602.304C185.995 603.328 188.331 603.84 191.275 603.84ZM190.315 560.544C194.155 560.544 197.387 561.024 200.011 561.984C202.635 562.944 204.715 564.288 206.251 566.016C207.851 567.744 208.971 569.856 209.611 572.352C210.315 574.784 210.667 577.472 210.667 580.416V610.848C208.875 611.232 206.155 611.68 202.507 612.192C198.923 612.768 194.859 613.056 190.315 613.056C187.307 613.056 184.555 612.768 182.059 612.192C179.563 611.616 177.419 610.688 175.627 609.408C173.899 608.128 172.523 606.464 171.499 604.416C170.539 602.368 170.059 599.84 170.059 596.832C170.059 593.952 170.603 591.52 171.691 589.536C172.843 587.552 174.379 585.952 176.299 584.736C178.219 583.456 180.427 582.56 182.923 582.048C185.483 581.472 188.139 581.184 190.891 581.184C192.171 581.184 193.515 581.28 194.923 581.472C196.331 581.6 197.835 581.856 199.435 582.24V580.32C199.435 578.976 199.275 577.696 198.955 576.48C198.635 575.264 198.059 574.208 197.227 573.312C196.459 572.352 195.403 571.616 194.059 571.104C192.779 570.592 191.147 570.336 189.163 570.336C186.475 570.336 184.011 570.528 181.771 570.912C179.531 571.296 177.707 571.744 176.299 572.256L174.859 562.848C176.331 562.336 178.475 561.824 181.291 561.312C184.107 560.8 187.115 560.544 190.315 560.544ZM242.364 612.96C238.908 612.896 236.028 612.512 233.724 611.808C231.484 611.104 229.692 610.112 228.348 608.832C227.004 607.488 226.044 605.856 225.468 603.936C224.956 601.952 224.7 599.712 224.7 597.216V539.424L236.316 537.504V595.008C236.316 596.416 236.412 597.6 236.604 598.56C236.86 599.52 237.276 600.352 237.852 601.056C238.428 601.696 239.196 602.208 240.156 602.592C241.18 602.912 242.46 603.168 243.996 603.36L242.364 612.96ZM271.056 603.84C274.64 603.84 277.36 603.648 279.216 603.264V590.4C278.576 590.208 277.648 590.016 276.432 589.824C275.216 589.632 273.872 589.536 272.4 589.536C271.12 589.536 269.808 589.632 268.464 589.824C267.184 590.016 266 590.368 264.912 590.88C263.888 591.392 263.056 592.128 262.416 593.088C261.776 593.984 261.456 595.136 261.456 596.544C261.456 599.296 262.32 601.216 264.048 602.304C265.776 603.328 268.112 603.84 271.056 603.84ZM270.096 560.544C273.936 560.544 277.168 561.024 279.792 561.984C282.416 562.944 284.496 564.288 286.032 566.016C287.632 567.744 288.752 569.856 289.392 572.352C290.096 574.784 290.448 577.472 290.448 580.416V610.848C288.656 611.232 285.936 611.68 282.288 612.192C278.704 612.768 274.64 613.056 270.096 613.056C267.088 613.056 264.336 612.768 261.84 612.192C259.344 611.616 257.2 610.688 255.408 609.408C253.68 608.128 252.304 606.464 251.28 604.416C250.32 602.368 249.84 599.84 249.84 596.832C249.84 593.952 250.384 591.52 251.472 589.536C252.624 587.552 254.16 585.952 256.08 584.736C258 583.456 260.208 582.56 262.704 582.048C265.264 581.472 267.92 581.184 270.672 581.184C271.952 581.184 273.296 581.28 274.704 581.472C276.112 581.6 277.616 581.856 279.216 582.24V580.32C279.216 578.976 279.056 577.696 278.736 576.48C278.416 575.264 277.84 574.208 277.008 573.312C276.24 572.352 275.184 571.616 273.84 571.104C272.56 570.592 270.928 570.336 268.944 570.336C266.256 570.336 263.792 570.528 261.552 570.912C259.312 571.296 257.488 571.744 256.08 572.256L254.64 562.848C256.112 562.336 258.256 561.824 261.072 561.312C263.888 560.8 266.896 560.544 270.096 560.544ZM322.721 578.208L333.377 561.792H345.569L329.057 585.504C332.513 589.984 335.809 594.528 338.945 599.136C342.145 603.68 344.769 607.968 346.817 612H334.241C333.665 610.784 332.897 609.408 331.937 607.872C331.041 606.272 330.049 604.64 328.961 602.976C327.937 601.248 326.849 599.552 325.697 597.888C324.545 596.224 323.425 594.656 322.337 593.184C320.097 596.064 317.889 599.264 315.713 602.784C313.601 606.24 311.841 609.312 310.433 612H298.529C299.489 610.08 300.641 608.032 301.985 605.856C303.329 603.68 304.769 601.472 306.305 599.232C307.841 596.928 309.409 594.656 311.009 592.416C312.673 590.112 314.305 587.936 315.905 585.888L299.297 561.792H312.065L322.721 578.208Z" fill="#A276D9"/>
<path d="M409.572 554.592C402.724 554.592 397.476 556.736 393.828 561.024C390.244 565.248 388.452 571.136 388.452 578.688C388.452 582.272 388.868 585.568 389.7 588.576C390.596 591.52 391.876 594.048 393.54 596.16C395.268 598.272 397.38 599.936 399.876 601.152C402.436 602.304 405.412 602.88 408.804 602.88C410.916 602.88 412.74 602.816 414.276 602.688C415.812 602.496 417.028 602.272 417.924 602.016V578.112H430.02V610.08C428.356 610.72 425.54 611.424 421.572 612.192C417.604 612.96 413.028 613.344 407.844 613.344C403.044 613.344 398.66 612.576 394.692 611.04C390.724 609.504 387.332 607.264 384.516 604.32C381.764 601.376 379.62 597.76 378.084 593.472C376.548 589.184 375.78 584.256 375.78 578.688C375.78 573.12 376.612 568.192 378.276 563.904C380.004 559.616 382.34 556 385.284 553.056C388.228 550.048 391.684 547.776 395.652 546.24C399.62 544.704 403.844 543.936 408.324 543.936C411.396 543.936 414.116 544.16 416.484 544.608C418.916 544.992 420.996 545.44 422.724 545.952C424.452 546.464 425.86 547.008 426.948 547.584C428.1 548.16 428.9 548.576 429.348 548.832L425.7 558.72C423.78 557.568 421.38 556.608 418.5 555.84C415.684 555.008 412.708 554.592 409.572 554.592ZM461.087 603.84C464.671 603.84 467.391 603.648 469.247 603.264V590.4C468.607 590.208 467.679 590.016 466.463 589.824C465.247 589.632 463.903 589.536 462.431 589.536C461.151 589.536 459.839 589.632 458.495 589.824C457.215 590.016 456.031 590.368 454.943 590.88C453.919 591.392 453.087 592.128 452.447 593.088C451.807 593.984 451.487 595.136 451.487 596.544C451.487 599.296 452.351 601.216 454.079 602.304C455.807 603.328 458.143 603.84 461.087 603.84ZM460.127 560.544C463.967 560.544 467.199 561.024 469.823 561.984C472.447 562.944 474.527 564.288 476.063 566.016C477.663 567.744 478.783 569.856 479.423 572.352C480.127 574.784 480.479 577.472 480.479 580.416V610.848C478.687 611.232 475.967 611.68 472.319 612.192C468.735 612.768 464.671 613.056 460.127 613.056C457.119 613.056 454.367 612.768 451.871 612.192C449.375 611.616 447.231 610.688 445.439 609.408C443.711 608.128 442.335 606.464 441.311 604.416C440.351 602.368 439.871 599.84 439.871 596.832C439.871 593.952 440.415 591.52 441.503 589.536C442.655 587.552 444.191 585.952 446.111 584.736C448.031 583.456 450.239 582.56 452.735 582.048C455.295 581.472 457.951 581.184 460.703 581.184C461.983 581.184 463.327 581.28 464.735 581.472C466.143 581.6 467.647 581.856 469.247 582.24V580.32C469.247 578.976 469.087 577.696 468.767 576.48C468.447 575.264 467.871 574.208 467.039 573.312C466.271 572.352 465.215 571.616 463.871 571.104C462.591 570.592 460.959 570.336 458.975 570.336C456.287 570.336 453.823 570.528 451.583 570.912C449.343 571.296 447.519 571.744 446.111 572.256L444.671 562.848C446.143 562.336 448.287 561.824 451.103 561.312C453.919 560.8 456.927 560.544 460.127 560.544ZM523.313 585.6C523.313 580.352 522.641 576.576 521.297 574.272C520.017 571.904 517.585 570.72 514.001 570.72C512.721 570.72 511.313 570.816 509.777 571.008C508.241 571.2 507.089 571.36 506.321 571.488V612H494.705V563.424C496.945 562.784 499.857 562.176 503.441 561.6C507.089 561.024 510.929 560.736 514.961 560.736C518.417 560.736 521.233 561.184 523.409 562.08C525.649 562.976 527.505 564.16 528.977 565.632C529.681 565.12 530.577 564.576 531.665 564C532.753 563.424 533.969 562.912 535.312 562.464C536.657 561.952 538.065 561.536 539.537 561.216C541.073 560.896 542.609 560.736 544.145 560.736C548.049 560.736 551.249 561.312 553.745 562.464C556.305 563.552 558.289 565.12 559.697 567.168C561.169 569.152 562.161 571.584 562.673 574.464C563.249 577.28 563.537 580.384 563.537 583.776V612H551.921V585.6C551.921 580.352 551.281 576.576 550.001 574.272C548.721 571.904 546.257 570.72 542.609 570.72C540.753 570.72 538.993 571.04 537.329 571.68C535.665 572.256 534.417 572.832 533.585 573.408C534.097 575.008 534.449 576.704 534.641 578.496C534.833 580.288 534.929 582.208 534.929 584.256V612H523.313V585.6ZM574.983 587.136C574.983 582.72 575.623 578.848 576.903 575.52C578.247 572.192 580.007 569.44 582.183 567.264C584.359 565.024 586.855 563.36 589.671 562.272C592.487 561.12 595.367 560.544 598.311 560.544C605.223 560.544 610.599 562.688 614.439 566.976C618.343 571.264 620.295 577.664 620.295 586.176C620.295 586.816 620.263 587.552 620.199 588.384C620.199 589.152 620.167 589.856 620.103 590.496H586.983C587.303 594.528 588.711 597.664 591.207 599.904C593.767 602.08 597.447 603.168 602.247 603.168C605.063 603.168 607.623 602.912 609.927 602.4C612.295 601.888 614.151 601.344 615.495 600.768L617.031 610.272C616.391 610.592 615.495 610.944 614.343 611.328C613.255 611.648 611.975 611.936 610.503 612.192C609.095 612.512 607.559 612.768 605.895 612.96C604.231 613.152 602.535 613.248 600.807 613.248C596.391 613.248 592.551 612.608 589.287 611.328C586.023 609.984 583.335 608.16 581.223 605.856C579.111 603.488 577.543 600.736 576.519 597.6C575.495 594.4 574.983 590.912 574.983 587.136ZM608.679 581.952C608.679 580.352 608.455 578.848 608.007 577.44C607.559 575.968 606.887 574.72 605.991 573.696C605.159 572.608 604.103 571.776 602.823 571.2C601.607 570.56 600.135 570.24 598.407 570.24C596.615 570.24 595.047 570.592 593.703 571.296C592.359 571.936 591.207 572.8 590.247 573.888C589.351 574.976 588.647 576.224 588.135 577.632C587.623 579.04 587.271 580.48 587.079 581.952H608.679ZM645.187 603.648C648.259 603.648 650.499 603.296 651.907 602.592C653.315 601.824 654.019 600.544 654.019 598.752C654.019 597.088 653.251 595.712 651.715 594.624C650.243 593.536 647.779 592.352 644.323 591.072C642.211 590.304 640.259 589.504 638.467 588.672C636.739 587.776 635.235 586.752 633.955 585.6C632.675 584.448 631.651 583.072 630.883 581.472C630.179 579.808 629.827 577.792 629.827 575.424C629.827 570.816 631.523 567.2 634.915 564.576C638.307 561.888 642.915 560.544 648.739 560.544C651.683 560.544 654.499 560.832 657.187 561.408C659.875 561.92 661.891 562.432 663.235 562.944L661.123 572.352C659.843 571.776 658.211 571.264 656.227 570.816C654.243 570.304 651.939 570.048 649.315 570.048C646.947 570.048 645.027 570.464 643.555 571.296C642.083 572.064 641.347 573.28 641.347 574.944C641.347 575.776 641.475 576.512 641.731 577.152C642.051 577.792 642.563 578.4 643.267 578.976C643.971 579.488 644.899 580.032 646.051 580.608C647.203 581.12 648.611 581.664 650.275 582.24C653.027 583.264 655.363 584.288 657.283 585.312C659.203 586.272 660.771 587.392 661.987 588.672C663.267 589.888 664.195 591.296 664.771 592.896C665.347 594.496 665.635 596.416 665.635 598.656C665.635 603.456 663.843 607.104 660.259 609.6C656.739 612.032 651.683 613.248 645.091 613.248C640.675 613.248 637.123 612.864 634.435 612.096C631.747 611.392 629.859 610.816 628.771 610.368L630.787 600.672C632.515 601.376 634.563 602.048 636.931 602.688C639.363 603.328 642.115 603.648 645.187 603.648Z" fill="#212837"/>
</svg>
