<?xml version="1.0" encoding="utf-8"?>
<!-- Generator: Adobe Illustrator 22.1.0, SVG Export Plug-In . SVG Version: 6.00 Build 0)  -->
<svg version="1.1" id="Camada_1" xmlns="http://www.w3.org/2000/svg" xmlns:xlink="http://www.w3.org/1999/xlink" x="0px" y="0px"
	 viewBox="0 0 206.6 50.4" style="enable-background:new 0 0 206.6 50.4;" xml:space="preserve">
<style type="text/css">
	.st0{fill:#BF0811;}
</style>
<g>
	<path class="st0" d="M39.7,0l-7.4,50.4h-8.4l-4-33.2l-4,33.2H7.4L0,0h7.7l4.2,34.1L16.1,0h7.8l4.2,34.1L32.2,0H39.7z"/>
	<path class="st0" d="M45.7,0h7.6v50.4h-7.6V0z"/>
	<path class="st0" d="M72.2,29.7l-2.9,5.5v15.2h-7.6V0h7.6v20.4L79.4,0h8.2L76.9,21.4l11.5,29h-8.2L72.2,29.7z"/>
	<path class="st0" d="M94.1,0h7.6v50.4h-7.6V0z"/>
	<path class="st0" d="M110.1,0h21.3v7.2h-13.7V22h10.8v7.2h-10.8v21.2h-7.6V0z"/>
	<path class="st0" d="M137.3,0h7.6v43.2h13.6v7.2h-21.2L137.3,0L137.3,0z"/>
	<path class="st0" d="M164.4,0h7.6v50.4h-7.6V0z"/>
	<path class="st0" d="M198.4,50.4l-6.5-17.6l-6.1,17.6h-7.9l10-26.1L178.5,0h8.2l6,16.1L198.3,0h7.9l-9.5,24.7l9.9,25.7H198.4z"/>
</g>
</svg>
